<svg xmlns="http://www.w3.org/2000/svg" width="157.403" height="27.091" viewBox="0 0 157.403 27.091"><defs><style>.a{fill:#0e2239;}.b{fill:#459b23;}.c{fill:none;}</style></defs><g transform="translate(31.646)"><path class="a" d="M88.029,40.7a10.761,10.761,0,0,1-7.748-2.933,10.177,10.177,0,0,1-3.068-7.714A10.9,10.9,0,0,1,80.332,22.2,10.341,10.341,0,0,1,88.1,18.964a9.408,9.408,0,0,1,7.765,3.357q2.509,3.188,2.441,8.714H82.129a5.589,5.589,0,0,0,5.73,5.662,6.482,6.482,0,0,0,3.561-1.018,6.362,6.362,0,0,0,2.373-2.644l4.069,1.9A8.694,8.694,0,0,1,94.4,38.867,11.431,11.431,0,0,1,88.029,40.7Zm-.068-17.868a5.637,5.637,0,0,0-4.238,1.763,4.2,4.2,0,0,0-1.39,2.814H93.556A4.288,4.288,0,0,0,92.5,24.728,5.54,5.54,0,0,0,87.961,22.829Z" transform="translate(-77.213 -13.675)"/><path class="a" d="M141.109,40.762l-8.442-20.818h4.95l5.7,14.478,5.459-14.478h4.916l-8.341,20.818Z" transform="translate(-109.645 -14.248)"/><path class="a" d="M202.176,23.771a6.367,6.367,0,0,0-2.1-.441,3.672,3.672,0,0,0-3.29,1.831,6.5,6.5,0,0,0-.949,3.56V40.046h-4.611V19.228h4.407v3.018a5.544,5.544,0,0,1,5.493-3.526,6.631,6.631,0,0,1,2.543.475Z" transform="translate(-143.892 -13.531)"/><path class="a" d="M234.217,40.7a10.761,10.761,0,0,1-7.748-2.933,10.179,10.179,0,0,1-3.068-7.714A10.9,10.9,0,0,1,226.52,22.2a10.344,10.344,0,0,1,7.765-3.238,9.408,9.408,0,0,1,7.765,3.357q2.509,3.188,2.442,8.714H228.318a5.589,5.589,0,0,0,5.73,5.662,6.48,6.48,0,0,0,3.56-1.018,6.355,6.355,0,0,0,2.373-2.644l4.069,1.9a8.7,8.7,0,0,1-3.459,3.933A11.432,11.432,0,0,1,234.217,40.7Zm-.067-17.868a5.636,5.636,0,0,0-4.238,1.763,4.2,4.2,0,0,0-1.39,2.814h11.222a4.289,4.289,0,0,0-1.051-2.679A5.541,5.541,0,0,0,234.15,22.829Z" transform="translate(-162.71 -13.675)"/><path class="a" d="M296.254,32.738,288.8,22.125V32.738h-4.712V6.223H288.8v14l6.985-8.307h5.595L293.2,21.142l8.815,11.6Z" transform="translate(-198.2 -6.223)"/></g><g transform="translate(0 5.124)"><path class="a" d="M7.067,24.7l-1.881-6.13H3.222A2.237,2.237,0,0,0,.985,20.8V28.75l4.468-1.165A2.278,2.278,0,0,0,7.067,24.7Z" transform="translate(-0.985 -18.566)"/><path class="a" d="M32.847,18.566H21.729c.812,2.649,1.554,5.066,1.554,5.066A2.522,2.522,0,0,0,26.3,25.313l8.786-2.291V20.8A2.237,2.237,0,0,0,32.847,18.566Z" transform="translate(-13.117 -18.566)"/><path class="a" d="M31.685,44.657s1.189,3.88,2.544,8.295h4.38a2.237,2.237,0,0,0,2.237-2.237V39.8L33.3,41.769A2.277,2.277,0,0,0,31.685,44.657Z" transform="translate(-18.879 -30.985)"/><path class="b" d="M11.61,57.925a.042.042,0,0,0,.04,0L9.819,51.81a2.236,2.236,0,0,0-.074-.248l0-.012h0a2.591,2.591,0,0,0-1.608-1.579L8.1,49.96l-.054-.016a2.445,2.445,0,0,0-1.358-.04L.985,51.391v5.187a2.237,2.237,0,0,0,2.237,2.237h8.7c-.092-.3-.183-.6-.274-.891A.042.042,0,0,1,11.61,57.925Z" transform="translate(-0.985 -36.849)"/></g><g transform="translate(136.449 5.289)"><path class="c" d="M366.132,34.156a7.8,7.8,0,0,1,1.067,2.411A6.578,6.578,0,0,0,366.132,34.156Z" transform="translate(-350.989 -27.849)"/><path class="a" d="M346.27,19.371v2.713a5.852,5.852,0,0,0-2.68-2.272,9.49,9.49,0,0,0-4.035-.848,9.134,9.134,0,0,0-7.357,3.255,11.567,11.567,0,0,0-2.543,7.662,11.294,11.294,0,0,0,2.7,7.764,9.055,9.055,0,0,0,7.136,3.052,7.673,7.673,0,0,0,6.783-3.323v2.814h4.34V19.371Zm-6.351,17.71c-3.429,0-6.209-3.27-6.209-7.3s2.78-7.3,6.209-7.3a5.919,5.919,0,0,1,4.881,2.8,6.578,6.578,0,0,1,1.067,2.411,8.509,8.509,0,0,1,.262,2.095C346.128,33.811,343.348,37.081,339.919,37.081Z" transform="translate(-329.656 -18.964)"/></g></svg>